# xmcd
#
# Track frame offsets:
# 150
# 14205
# 27129
# 40144
# 52143
# 62352
# 75124
# 87007
# 99416
# 107020
# 119624
# 131372
# 140949
# 158709
# 168338
# 182793
# 194889
# 208989
#
# Disc length: 2930 seconds
#
#
# Revision: 0
# Processed by: cddbd v1.5.1PL2 Copyright (c) Steve Scherf et al.
# Submitted via: FreeRIP 2.943 
#
DISCID=fc0b7012
DTITLE=Solid Gold Country CD 2 - Solid Gold Country CD 2
DYEAR=2005
DGENRE=Country
TTITLE0=Blue Moon Of Kentucky - Bill Monroe
TTITLE1=Wabash Cannonball - Roy Acuff
TTITLE2=I'm Movin' On - Hank Snow
TTITLE3=Sixteen Tons - Johnny Cash
TTITLE4=Three Cigarettes In An Ashtray - Patsy Cline
TTITLE5=Rose Garden - Lynn Anderson
TTITLE6=End Of The World - Skeeter Davis
TTITLE7=The Cheatin' Kind - Billie Jo Spears
TTITLE8=Your Cheating Heart - Faron Young
TTITLE9=I'm So Lonesome I Could Cry - Hank Williams
TTITLE10=New San Antonio Rose - Bob Wills
TTITLE11=Six Days On The Road - Dave Dudley
TTITLE12=Something's Burning - Kenny Rogers
TTITLE13=You Ain't Woman Enough - Loretta Lynn
TTITLE14=Wildflower Wood - Carter Family
TTITLE15=Tumbling Tumbleweeds - Sons Of The Pioneers
TTITLE16=Angel Of The Morning - Rita Remington
TTITLE17=Will The Circle Be Unbroken - Jerry Lee Lewis
EXTD=
EXTT0=
EXTT1=
EXTT2=
EXTT3=
EXTT4=
EXTT5=
EXTT6=
EXTT7=
EXTT8=
EXTT9=
EXTT10=
EXTT11=
EXTT12=
EXTT13=
EXTT14=
EXTT15=
EXTT16=
EXTT17=
PLAYORDER=
